<svg width="32" height="32" viewBox="0 0 32 32" fill="none" xmlns="http://www.w3.org/2000/svg">
<path d="M26.6667 4H20C19.2636 4 18.6667 4.59695 18.6667 5.33333V12C18.6667 12.7364 19.2636 13.3333 20 13.3333H26.6667C27.403 13.3333 28 12.7364 28 12V5.33333C28 4.59695 27.403 4 26.6667 4Z" stroke="white" stroke-width="1.4" stroke-linecap="round" stroke-linejoin="round"/>
<path d="M13.3333 28V10.6666C13.3333 10.313 13.1929 9.97389 12.9428 9.72384C12.6928 9.47379 12.3536 9.33331 12 9.33331H5.33333C4.97971 9.33331 4.64057 9.47379 4.39052 9.72384C4.14048 9.97389 4 10.313 4 10.6666V26.6666C4 27.0203 4.14048 27.3594 4.39052 27.6095C4.64057 27.8595 4.97971 28 5.33333 28H21.3333C21.687 28 22.0261 27.8595 22.2761 27.6095C22.5262 27.3594 22.6667 27.0203 22.6667 26.6666V20C22.6667 19.6464 22.5262 19.3072 22.2761 19.0572C22.0261 18.8071 21.687 18.6666 21.3333 18.6666H4" stroke="white" stroke-width="1.4" stroke-linecap="round" stroke-linejoin="round"/>
</svg>
